<svg width="117" height="117" viewBox="0 0 117 117" fill="none" xmlns="http://www.w3.org/2000/svg">
<path fill-rule="evenodd" clip-rule="evenodd" d="M58.5 117C90.8087 117 117 90.8087 117 58.5C117 26.1913 90.8087 0 58.5 0C26.1913 0 0 26.1913 0 58.5C0 90.8087 26.1913 117 58.5 117ZM57.9678 105.3C84.1085 105.3 105.3 84.1087 105.3 57.968C105.3 31.8274 84.1085 10.6362 57.9678 10.6362C31.8272 10.6362 10.636 31.8274 10.636 57.968C10.636 84.1087 31.8272 105.3 57.9678 105.3Z" fill="#D8CEDF"/>
<path fill-rule="evenodd" clip-rule="evenodd" d="M11.9505 37.087C9.39302 34.2773 4.82954 34.8781 3.52724 38.4474C1.2451 44.702 0 51.4556 0 58.5C0 90.8087 26.1913 117 58.5 117C90.8087 117 117 90.8087 117 58.5C117 26.1913 90.8087 0 58.5 0C51.3733 0 44.5442 1.27438 38.2283 3.60768C34.8886 4.84146 34.1261 9.03858 36.5227 11.6715C38.0808 13.3833 40.5462 13.8842 42.738 13.1398C47.5173 11.5166 52.6398 10.6362 57.9678 10.6362C84.1085 10.6362 105.3 31.8274 105.3 57.968C105.3 84.1087 84.1085 105.3 57.9678 105.3C31.8272 105.3 10.636 84.1087 10.636 57.968C10.636 52.7148 11.4918 47.6614 13.0716 42.9397C13.7477 40.919 13.3849 38.6628 11.9505 37.087Z" fill="#0094FF"/>
<path d="M40.896 68.288C39.488 68.288 38.256 68.08 37.2 67.664C36.144 67.232 35.32 66.632 34.728 65.864C34.136 65.08 33.84 64.168 33.84 63.128C33.84 62.088 34.128 61.208 34.704 60.488C35.296 59.752 36.12 59.2 37.176 58.832C38.232 58.448 39.472 58.256 40.896 58.256C42.336 58.256 43.584 58.448 44.64 58.832C45.712 59.2 46.536 59.752 47.112 60.488C47.704 61.208 48 62.088 48 63.128C48 64.168 47.704 65.08 47.112 65.864C46.52 66.632 45.688 67.232 44.616 67.664C43.56 68.08 42.32 68.288 40.896 68.288ZM40.896 65.432C41.872 65.432 42.64 65.216 43.2 64.784C43.776 64.352 44.064 63.76 44.064 63.008C44.064 62.256 43.776 61.672 43.2 61.256C42.64 60.824 41.872 60.608 40.896 60.608C39.936 60.608 39.176 60.824 38.616 61.256C38.056 61.672 37.776 62.256 37.776 63.008C37.776 63.76 38.056 64.352 38.616 64.784C39.176 65.216 39.936 65.432 40.896 65.432ZM40.896 60.224C39.6 60.224 38.464 60.048 37.488 59.696C36.528 59.344 35.776 58.832 35.232 58.16C34.704 57.472 34.44 56.656 34.44 55.712C34.44 54.72 34.712 53.872 35.256 53.168C35.8 52.448 36.56 51.896 37.536 51.512C38.512 51.112 39.632 50.912 40.896 50.912C42.192 50.912 43.32 51.112 44.28 51.512C45.256 51.896 46.016 52.448 46.56 53.168C47.12 53.872 47.4 54.72 47.4 55.712C47.4 56.656 47.128 57.472 46.584 58.16C46.056 58.832 45.304 59.344 44.328 59.696C43.352 60.048 42.208 60.224 40.896 60.224ZM40.896 57.944C41.712 57.944 42.352 57.76 42.816 57.392C43.296 57.024 43.536 56.52 43.536 55.88C43.536 55.208 43.288 54.688 42.792 54.32C42.312 53.952 41.68 53.768 40.896 53.768C40.128 53.768 39.504 53.952 39.024 54.32C38.544 54.688 38.304 55.208 38.304 55.88C38.304 56.52 38.536 57.024 39 57.392C39.464 57.76 40.096 57.944 40.896 57.944ZM56.9798 68.288C55.6038 68.288 54.3718 67.952 53.2838 67.28C52.1958 66.592 51.3398 65.6 50.7158 64.304C50.0918 63.008 49.7798 61.44 49.7798 59.6C49.7798 57.76 50.0918 56.192 50.7158 54.896C51.3398 53.6 52.1958 52.616 53.2838 51.944C54.3718 51.256 55.6038 50.912 56.9798 50.912C58.3718 50.912 59.6038 51.256 60.6758 51.944C61.7638 52.616 62.6198 53.6 63.2438 54.896C63.8678 56.192 64.1798 57.76 64.1798 59.6C64.1798 61.44 63.8678 63.008 63.2438 64.304C62.6198 65.6 61.7638 66.592 60.6758 67.28C59.6038 67.952 58.3718 68.288 56.9798 68.288ZM56.9798 65C57.6358 65 58.2038 64.816 58.6838 64.448C59.1798 64.08 59.5638 63.496 59.8358 62.696C60.1238 61.896 60.2678 60.864 60.2678 59.6C60.2678 58.336 60.1238 57.304 59.8358 56.504C59.5638 55.704 59.1798 55.12 58.6838 54.752C58.2038 54.384 57.6358 54.2 56.9798 54.2C56.3398 54.2 55.7718 54.384 55.2758 54.752C54.7958 55.12 54.4118 55.704 54.1238 56.504C53.8518 57.304 53.7158 58.336 53.7158 59.6C53.7158 60.864 53.8518 61.896 54.1238 62.696C54.4118 63.496 54.7958 64.08 55.2758 64.448C55.7718 64.816 56.3398 65 56.9798 65ZM68.4928 68L79.9648 51.2H82.8208L71.3488 68H68.4928ZM69.9568 60.272C69.1408 60.272 68.4208 60.088 67.7968 59.72C67.1728 59.336 66.6768 58.8 66.3088 58.112C65.9568 57.408 65.7808 56.584 65.7808 55.64C65.7808 54.696 65.9568 53.88 66.3088 53.192C66.6768 52.504 67.1728 51.968 67.7968 51.584C68.4208 51.2 69.1408 51.008 69.9568 51.008C70.7728 51.008 71.4928 51.2 72.1168 51.584C72.7408 51.968 73.2288 52.504 73.5808 53.192C73.9328 53.88 74.1088 54.696 74.1088 55.64C74.1088 56.584 73.9328 57.408 73.5808 58.112C73.2288 58.8 72.7408 59.336 72.1168 59.72C71.4928 60.088 70.7728 60.272 69.9568 60.272ZM69.9568 58.304C70.4848 58.304 70.9088 58.088 71.2288 57.656C71.5488 57.208 71.7088 56.536 71.7088 55.64C71.7088 54.744 71.5488 54.08 71.2288 53.648C70.9088 53.2 70.4848 52.976 69.9568 52.976C69.4448 52.976 69.0208 53.2 68.6848 53.648C68.3648 54.08 68.2048 54.744 68.2048 55.64C68.2048 56.52 68.3648 57.184 68.6848 57.632C69.0208 58.08 69.4448 58.304 69.9568 58.304ZM81.3568 68.192C80.5568 68.192 79.8368 68.008 79.1968 67.64C78.5728 67.256 78.0848 66.72 77.7328 66.032C77.3808 65.328 77.2048 64.504 77.2048 63.56C77.2048 62.616 77.3808 61.8 77.7328 61.112C78.0848 60.424 78.5728 59.888 79.1968 59.504C79.8368 59.12 80.5568 58.928 81.3568 58.928C82.1888 58.928 82.9168 59.12 83.5408 59.504C84.1648 59.888 84.6528 60.424 85.0048 61.112C85.3568 61.8 85.5328 62.616 85.5328 63.56C85.5328 64.504 85.3568 65.328 85.0048 66.032C84.6528 66.72 84.1648 67.256 83.5408 67.64C82.9168 68.008 82.1888 68.192 81.3568 68.192ZM81.3568 66.224C81.8848 66.224 82.3088 66.008 82.6288 65.576C82.9488 65.128 83.1088 64.456 83.1088 63.56C83.1088 62.68 82.9488 62.016 82.6288 61.568C82.3088 61.12 81.8848 60.896 81.3568 60.896C80.8448 60.896 80.4208 61.12 80.0848 61.568C79.7648 62 79.6048 62.664 79.6048 63.56C79.6048 64.456 79.7648 65.128 80.0848 65.576C80.4208 66.008 80.8448 66.224 81.3568 66.224Z" fill="#0094FF"/>
</svg>
