<svg width="50" height="50" viewBox="0 0 50 50" fill="none" xmlns="http://www.w3.org/2000/svg">
<circle cx="25" cy="25" r="24.5" stroke="#121212"/>
<path d="M21.7 32V30.26L27.26 24.98C27.7267 24.54 28.0733 24.1533 28.3 23.82C28.5267 23.4867 28.6733 23.18 28.74 22.9C28.82 22.6067 28.86 22.3333 28.86 22.08C28.86 21.44 28.64 20.9467 28.2 20.6C27.76 20.24 27.1133 20.06 26.26 20.06C25.58 20.06 24.96 20.18 24.4 20.42C23.8533 20.66 23.38 21.0267 22.98 21.52L21.16 20.12C21.7067 19.3867 22.44 18.82 23.36 18.42C24.2933 18.0067 25.3333 17.8 26.48 17.8C27.4933 17.8 28.3733 17.9667 29.12 18.3C29.88 18.62 30.46 19.08 30.86 19.68C31.2733 20.28 31.48 20.9933 31.48 21.82C31.48 22.2733 31.42 22.7267 31.3 23.18C31.18 23.62 30.9533 24.0867 30.62 24.58C30.2867 25.0733 29.8 25.6267 29.16 26.24L24.38 30.78L23.84 29.8H32.02V32H21.7Z" fill="black"/>
</svg>
