<svg width="50" height="50" viewBox="0 0 50 50" fill="none" xmlns="http://www.w3.org/2000/svg">
<circle cx="25" cy="25" r="24.5" stroke="#121212"/>
<path d="M26.28 32.2C25.2933 32.2 24.3267 32.06 23.38 31.78C22.4467 31.4867 21.66 31.0867 21.02 30.58L22.14 28.56C22.6467 28.9733 23.26 29.3067 23.98 29.56C24.7 29.8133 25.4533 29.94 26.24 29.94C27.1733 29.94 27.9 29.7533 28.42 29.38C28.94 28.9933 29.2 28.4733 29.2 27.82C29.2 27.18 28.96 26.6733 28.48 26.3C28 25.9267 27.2267 25.74 26.16 25.74H24.88V23.96L28.88 19.2L29.22 20.18H21.7V18H31.24V19.74L27.24 24.5L25.88 23.7H26.66C28.38 23.7 29.6667 24.0867 30.52 24.86C31.3867 25.62 31.82 26.6 31.82 27.8C31.82 28.5867 31.62 29.3133 31.22 29.98C30.82 30.6467 30.2067 31.1867 29.38 31.6C28.5667 32 27.5333 32.2 26.28 32.2Z" fill="black"/>
</svg>
